<svg width="16" height="16" viewBox="0 0 16 16" fill="none" xmlns="http://www.w3.org/2000/svg">
<path d="M12.2197 2.71967C12.5126 2.42678 12.9873 2.42678 13.2802 2.71967C13.5731 3.01256 13.5731 3.48732 13.2802 3.78021L9.06049 7.99994L13.2802 12.2197C13.5731 12.5126 13.5731 12.9873 13.2802 13.2802C12.9873 13.5731 12.5126 13.5731 12.2197 13.2802L7.99994 9.06049L3.78021 13.2802C3.48732 13.5731 3.01256 13.5731 2.71967 13.2802C2.42678 12.9873 2.42678 12.5126 2.71967 12.2197L6.93939 7.99994L2.71967 3.78021C2.42678 3.48732 2.42678 3.01256 2.71967 2.71967C3.01256 2.42678 3.48732 2.42678 3.78021 2.71967L7.99994 6.93939L12.2197 2.71967Z" fill="#00070E"/>
</svg>
